<svg width="92" height="106" viewBox="0 0 92 106" fill="none" xmlns="http://www.w3.org/2000/svg">
<path d="M45.8411 57.7848C45.1072 57.1024 43.9782 57.1024 43.3008 57.7848C42.6234 58.4672 42.6234 59.6045 43.3008 60.3437C43.9782 61.0261 45.1072 61.0261 45.8411 60.3437C46.575 59.6614 46.575 58.524 45.8411 57.7848Z" fill="#660033"/>
<path d="M44.5994 21.5616C24.1074 21.5616 7.4541 38.3369 7.4541 59.0358C7.4541 79.7348 24.1074 96.51 44.6559 96.51C65.2044 96.51 81.8577 79.7348 81.8577 59.0358C81.8012 38.3369 65.1479 21.6185 44.5994 21.5616ZM42.8494 25.1442C42.8494 24.1774 43.6398 23.3813 44.5994 23.3813C45.5591 23.3813 46.3494 24.1774 46.3494 25.1442V32.3092C46.3494 33.2759 45.5591 34.072 44.5994 34.072C43.6398 34.072 42.8494 33.2759 42.8494 32.3092V25.1442ZM18.0671 60.7987H10.9541C9.99444 60.7987 9.20411 60.0025 9.20411 59.0358C9.20411 58.0691 9.99444 57.273 10.9541 57.273H18.0671C19.0267 57.273 19.8171 58.0691 19.8171 59.0358C19.8171 60.0025 19.0267 60.7987 18.0671 60.7987ZM46.4059 92.9275C46.4059 93.8942 45.6156 94.6903 44.6559 94.6903C43.6962 94.6903 42.9059 93.8942 42.9059 92.9275V85.7625C42.9059 84.7958 43.6962 83.9997 44.6559 83.9997C45.6156 83.9997 46.4059 84.7958 46.4059 85.7625V92.9275ZM49.9624 59.0358C49.9624 61.7654 47.9301 64.04 45.2769 64.3812C42.5672 64.7224 40.0833 62.9027 39.4623 60.2869C38.8413 57.6142 40.3091 54.9415 42.8494 54.0317V41.1802C42.8494 40.2134 43.6398 39.4173 44.5994 39.4173C45.5591 39.4173 46.3494 40.2134 46.3494 41.1802V53.9748C46.5188 54.0317 46.6882 54.0886 46.8575 54.2023L66.3334 34.5838C67.0108 33.9014 68.1399 33.9014 68.8173 34.5838C69.4947 35.2662 69.4947 36.4035 68.8173 37.0859L49.3978 56.7612C49.7366 57.4436 49.9624 58.2397 49.9624 59.0358ZM78.3012 60.7987H71.1883C70.2286 60.7987 69.4383 60.0025 69.4383 59.0358C69.4383 58.0691 70.2286 57.273 71.1883 57.273H78.3012C79.2609 57.273 80.0512 58.0691 80.0512 59.0358C80.0512 60.0025 79.2609 60.7987 78.3012 60.7987Z" fill="#660033"/>
<path d="M48.0429 16.3869C47.0832 16.33 46.3493 15.4771 46.4058 14.4535C46.4058 14.4535 46.4058 14.4535 46.4058 14.3966V7.28847C46.4058 6.32176 47.1961 5.52564 48.1558 5.52564H49.9058C50.3574 5.52564 50.809 5.35505 51.1478 5.01386C51.4865 4.67267 51.7123 4.21774 51.7123 3.76282C51.7123 2.79611 50.922 2 49.9623 2H39.2929C38.8413 2 38.3896 2.1706 38.0509 2.51179C37.7122 2.85298 37.4864 3.3079 37.4864 3.76282C37.4864 4.72953 38.2767 5.52564 39.2364 5.52564H40.9864C41.9461 5.52564 42.7364 6.32176 42.7364 7.28847V14.4535C42.7929 15.4202 42.059 16.2732 41.0993 16.3869C33.8735 16.9556 26.8735 19.4008 20.8331 23.4951C20.7767 23.5519 20.6637 23.5519 20.6073 23.6088C20.5508 23.6657 20.4944 23.6657 20.4379 23.6657C20.2686 23.7225 20.0428 23.7794 19.817 23.7794C19.5912 23.7794 19.4218 23.7225 19.2524 23.6657C19.196 23.6657 19.196 23.6657 19.1395 23.6088C18.9702 23.5519 18.8008 23.4382 18.6315 23.2676C18.6315 23.2676 18.6315 23.2676 18.575 23.2676L14.454 19.1164C14.3976 19.0596 14.3411 18.9458 14.2847 18.889C14.1718 18.7752 14.1153 18.6615 14.0589 18.5478C14.0589 18.4909 14.0024 18.3772 14.0024 18.3203C13.946 18.2066 13.946 18.036 13.946 17.9223C13.946 17.7517 14.0024 17.6379 14.0024 17.5242C14.0024 17.4673 14.0024 17.3536 14.0589 17.2967C14.1153 17.183 14.1718 17.0693 14.2847 17.0124C14.3411 16.8987 14.3976 16.8418 14.454 16.7281C15.1315 16.0457 15.1315 14.9084 14.454 14.226C14.1153 13.8848 13.6637 13.7142 13.2121 13.7142C12.7605 13.7142 12.3089 13.8848 11.9702 14.226L6.94594 19.287C6.26852 19.9694 6.26852 21.1067 6.94594 21.7891C7.28465 22.1303 7.73627 22.3009 8.18788 22.3009C8.6395 22.3009 9.09111 22.1303 9.42983 21.7891C9.59918 21.6185 9.76854 21.5048 9.93789 21.4479C10.3331 21.2773 10.7847 21.2205 11.1798 21.391C11.4621 21.4479 11.6879 21.6185 11.9137 21.7891L15.4702 25.3716C15.5266 25.4285 15.5831 25.5422 15.6395 25.6559C15.696 25.7697 15.7524 25.8834 15.8089 25.9403C15.8653 26.054 15.8653 26.1677 15.8653 26.2815C15.9218 26.3952 15.9218 26.5089 15.9218 26.6227C15.9218 26.7364 15.8653 26.8501 15.8653 26.9638C15.8653 27.0776 15.8089 27.1913 15.8089 27.305C15.7524 27.4188 15.696 27.4756 15.6395 27.5894C15.5831 27.7031 15.5266 27.76 15.4702 27.8737C0.792689 41.6919 -2.25571 63.9831 8.13143 81.327C18.5186 98.6709 39.5187 106.291 58.4865 99.5807C77.4543 92.9275 89.1963 73.7639 86.656 53.6905C84.2286 33.5033 68.0269 17.9791 48.0429 16.3869ZM44.5993 100.093C22.075 100.093 3.84109 81.7251 3.84109 59.0358C3.84109 36.3466 22.075 17.9791 44.5993 17.9791C67.1236 17.9791 85.3576 36.3466 85.3576 59.0358C85.3576 81.6682 67.1236 100.036 44.5993 100.093Z" fill="#660033"/>
<path d="M3 2L88 102" stroke="white" stroke-width="6"/>
<line x1="89.2858" y1="3.94295" x2="4.28581" y2="103.943" stroke="white" stroke-width="6"/>
</svg>
