<svg width="95" height="128" viewBox="0 0 95 128" fill="none" xmlns="http://www.w3.org/2000/svg">
<g clip-path="url(#clip0_1019_320)">
<path d="M46.4131 0.147009C44.9831 0.793009 44.9821 0.797009 44.9821 9.36801V16.561H41.4781C36.5261 16.561 35.1881 17.052 33.9001 19.339C33.1591 20.655 33.1851 20.345 33.1471 28.207L33.1121 35.312L32.0751 35.671C14.7021 41.693 2.52406 56.784 0.248059 75.111C0.00605933 77.058 -0.0299407 83.783 0.191059 85.582C1.93806 99.769 8.87706 111.485 20.3001 119.532C32.2001 127.915 48.2031 130.297 62.0761 125.75C89.5921 116.731 102.784 85.585 90.0631 59.672C84.5391 48.42 73.8111 39.062 62.3751 35.518L61.7661 35.329L61.7311 28.215C61.6931 20.343 61.7191 20.654 60.9781 19.338C59.6901 17.051 58.3521 16.56 53.4031 16.56H49.9021L49.8731 9.15801L49.8431 1.75601L49.5761 1.24001C49.0311 0.187009 47.4971 -0.342991 46.4131 0.147009ZM56.5601 21.59L56.8421 21.811V33.121H38.0371V21.811L38.3191 21.59C38.7631 21.241 56.1161 21.241 56.5601 21.59ZM49.3621 38.04C82.2511 39.634 101.067 76.229 83.1611 103.776C66.3831 129.588 28.5081 129.588 11.7161 103.776C-6.12394 76.353 12.6461 39.616 45.3021 38.042C46.2131 37.998 47.0061 37.956 47.0651 37.948C47.1241 37.94 48.1581 37.981 49.3621 38.04Z" fill="white"/>
</g>
<defs>
<clipPath id="clip0_1019_320">
<rect width="95" height="128" fill="white"/>
</clipPath>
</defs>
</svg>
